HIERARCHY
ROOT Hips
{
	OFFSET 0.000000 0.000000 0.000000
	CHANNELS 6 Xposition Yposition Zposition Zrotation Yrotation Xrotation 
	JOINT LHipJoint
	{
		OFFSET 0.000000 0.000000 0.000000
		CHANNELS 3 Zrotation Yrotation Xrotation
		JOINT LeftUpLeg
		{
			OFFSET 1.363060 -1.794630 0.839290
			CHANNELS 3 Zrotation Yrotation Xrotation
			JOINT LeftLeg
			{
				OFFSET 2.448110 -6.726130 0.000000
				CHANNELS 3 Zrotation Yrotation Xrotation
				JOINT LeftFoot
				{
					OFFSET 2.562200 -7.039590 0.000000
					CHANNELS 3 Zrotation Yrotation Xrotation
					JOINT LeftToeBase
					{
						OFFSET 0.157640 -0.433110 2.322550
						CHANNELS 3 Zrotation Yrotation Xrotation
						End Site
						{
							OFFSET 0.000000 0.000000 0.000000
						}
					}
				}
			}
		}
	}
	JOINT RHipJoint
	{
		OFFSET 0.000000 0.000000 0.000000
		CHANNELS 3 Zrotation Yrotation Xrotation
		JOINT RightUpLeg
		{
			OFFSET -1.305520 -1.794630 0.839290
			CHANNELS 3 Zrotation Yrotation Xrotation
			JOINT RightLeg
			{
				OFFSET -2.542530 -6.985550 0.000000
				CHANNELS 3 Zrotation Yrotation Xrotation
				JOINT RightFoot
				{
					OFFSET -2.568260 -7.056230 0.000000
					CHANNELS 3 Zrotation Yrotation Xrotation
					JOINT RightToeBase
					{
						OFFSET -0.164730 -0.452590 2.363150
						CHANNELS 3 Zrotation Yrotation Xrotation
						End Site
						{
							OFFSET 0.000000 0.000000 0.000000
						}
					}
				}
			}
		}
	}
}
MOTION
Frames: 17
Frame Time: 0.008333
5.003767 17.342276 0.925750 -3.193632 -85.870112 12.332486 -11.152755 3.532361 3.918059 -6.042317 9.507006 -13.788253 -2.415109 -1.174594 -0.711845 0.370408 2.569930 0.181112 0.506601 0.000000 -28.271900 9.049962 -2.251765 3.568474 6.737569 -3.666056 -8.647291 2.387127 2.054339 -1.042024 -0.507041 -7.974995 -2.762575 -2.270900 0.000000 -34.689400
4.998588 17.343176 0.918360 -2.490775 -84.674475 11.828385 -11.065173 3.525542 4.086023 -5.965365 8.592893 -14.044500 -2.404298 -1.172894 -0.711898 0.334663 2.299892 0.361694 0.488500 -0.000000 -28.419600 9.107214 -2.224577 3.485453 6.872722 -4.036844 -8.710368 2.335390 2.073480 -1.037432 -0.593202 -8.735257 -3.011004 -2.403500 0.000000 -34.254000
4.994579 17.344139 0.910794 -1.929670 -83.470914 11.469250 -10.980755 3.511208 4.244909 -5.888629 7.677714 -14.276759 -2.393588 -1.174305 -0.756109 0.298336 2.038623 0.572492 0.471700 0.000000 -28.559600 9.163085 -2.198185 3.394851 7.001005 -4.415319 -8.772916 2.283807 2.090123 -1.046967 -0.681857 -9.482100 -3.247985 -2.529200 0.000001 -33.814500
4.991366 17.345213 0.903203 -1.495347 -82.256493 11.255856 -10.900398 3.489306 4.398129 -5.811255 6.774286 -14.525981 -2.385201 -1.178423 -0.816964 0.259557 1.766589 0.803232 0.452900 -0.000001 -28.695600 9.214796 -2.174558 3.306550 7.133666 -4.782995 -8.857687 2.233083 2.106115 -1.068577 -0.773919 -10.232917 -3.474992 -2.653500 0.000000 -33.364301
4.989420 17.346365 0.895300 -1.109998 -81.044628 11.098374 -10.821734 3.460065 4.540762 -5.734992 5.878445 -14.760107 -2.377843 -1.184841 -0.911297 0.220439 1.502843 1.060191 0.434300 0.000000 -28.823400 9.266363 -2.150780 3.212197 7.259891 -5.150294 -8.947025 2.182668 2.119603 -1.100986 -0.868158 -10.969210 -3.690021 -2.771600 0.000000 -32.911101
4.988832 17.347579 0.887017 -0.765565 -79.837542 10.991039 -10.745260 3.422694 4.672139 -5.660442 4.996909 -14.991243 -2.372240 -1.193087 -1.026651 0.180650 1.242651 1.338073 0.415100 0.000000 -28.943300 9.316789 -2.127113 3.114070 7.381785 -5.509883 -9.047148 2.132759 2.130621 -1.141473 -0.964149 -11.693725 -3.894330 -2.885200 -0.000000 -32.454400
4.989762 17.348858 0.878283 -0.445700 -78.640174 10.916740 -10.671065 3.376579 4.790463 -5.588510 4.132999 -15.218749 -2.368448 -1.202801 -1.158739 0.140652 0.989016 1.634667 0.395200 0.000000 -29.054500 9.366103 -2.103251 3.011497 7.497884 -5.859323 -9.157782 2.083282 2.138449 -1.186181 -1.060834 -12.403452 -4.088576 -2.994500 -0.000000 -31.996800
4.992321 17.350139 0.869008 -0.138384 -77.457777 10.861336 -10.599380 3.321096 4.893281 -5.521120 3.292242 -15.440183 -2.366691 -1.213580 -1.302675 0.100742 0.743366 1.946887 0.374600 -0.000001 -29.154800 9.414394 -2.078912 2.903195 7.605551 -6.198583 -9.276287 2.034342 2.142378 -1.232388 -1.157121 -13.092238 -4.273524 -3.098499 0.000000 -31.537700
4.996433 17.351471 0.859259 0.151048 -76.289572 10.834931 -10.531120 3.255778 4.981697 -5.456819 2.476461 -15.668537 -2.367061 -1.225148 -1.447195 0.060919 0.503975 2.269885 0.352900 0.000000 -29.247600 9.460015 -2.054795 2.792309 7.708726 -6.518343 -9.412590 1.985791 2.142011 -1.271172 -1.250949 -13.767262 -4.453039 -3.201700 0.000000 -31.084501
5.002389 17.352849 0.848930 0.434357 -75.142929 10.817697 -10.466310 3.180159 5.052362 -5.398919 1.691963 -15.893027 -2.369620 -1.237169 -1.592414 0.021622 0.274008 2.601668 0.330400 0.000000 -29.327800 9.503644 -2.030302 2.675695 7.802324 -6.823902 -9.558649 1.937930 2.136341 -1.300969 -1.340382 -14.416051 -4.627297 -3.301400 0.000000 -30.632200
5.010158 17.354299 0.838011 0.715788 -74.019832 10.803027 -10.405144 3.094417 5.104750 -5.349060 0.941360 -16.111000 -2.374402 -1.249420 -1.735358 -0.016934 0.054713 2.940715 0.307400 -0.000000 -29.394100 9.545330 -2.005644 2.552876 7.884271 -7.116991 -9.713244 1.890767 2.124537 -1.316227 -1.422982 -15.034776 -4.797907 -3.398400 -0.000000 -30.183900
5.019623 17.355887 0.826665 0.988494 -72.918787 10.799609 -10.348387 2.998875 5.140452 -5.305954 0.226052 -16.330144 -2.381364 -1.261679 -1.868768 -0.054931 -0.156815 3.283510 0.283400 0.000000 -29.448600 9.583775 -1.981551 2.426151 7.958167 -7.393190 -9.882790 1.844305 2.106206 -1.308561 -1.496151 -15.628754 -4.968398 -3.496900 0.000000 -29.746600
5.030826 17.357694 0.814844 1.259276 -71.843682 10.793536 -10.295840 2.894321 5.158692 -5.272959 -0.449631 -16.541434 -2.390690 -1.273849 -1.994199 -0.092295 -0.359968 3.630087 0.258700 -0.000000 -29.487100 9.619849 -1.958150 2.293979 8.019805 -7.661207 -10.059882 1.799220 2.081119 -1.279918 -1.558450 -16.186379 -5.137116 -3.594200 0.000000 -29.310500
5.043530 17.359822 0.802640 1.527428 -70.794632 10.784191 -10.247721 2.781925 5.160928 -5.250514 -1.084074 -16.744838 -2.402437 -1.285801 -2.109537 -0.129239 -0.557327 3.979267 0.232900 -0.000001 -29.509600 9.653336 -1.936048 2.157384 8.069960 -7.923110 -10.243828 1.755754 2.049320 -1.228215 -1.608469 -16.707748 -5.304313 -3.691400 0.000000 -28.878300
5.057625 17.362343 0.790111 1.793039 -69.772923 10.768012 -10.204120 2.663021 5.148403 -5.239665 -1.675203 -16.937975 -2.416653 -1.297409 -2.214610 -0.165944 -0.751005 4.331083 0.205600 0.000000 -29.514900 9.684387 -1.915702 2.016936 8.108114 -8.183369 -10.431482 1.714418 2.011190 -1.155483 -1.645906 -17.189757 -5.467467 -3.788500 0.000001 -28.448599
5.072868 17.365326 0.777296 2.056416 -68.781107 10.742262 -10.165130 2.539202 5.122556 -5.241072 -2.220647 -17.118411 -2.433409 -1.308584 -2.309448 -0.202661 -0.944000 4.685004 0.176200 -0.000000 -29.502900 9.713174 -1.897653 1.873566 8.134255 -8.446051 -10.618253 1.675734 1.967588 -1.066977 -1.671666 -17.630278 -5.623059 -3.884200 0.000000 -28.021100
5.089103 17.368860 0.764253 2.315476 -67.822788 10.705475 -10.130895 2.411881 5.084534 -5.255485 -2.716158 -17.285189 -2.452800 -1.319260 -2.393533 -0.239641 -1.139567 5.039910 0.144200 0.000001 -29.474300 9.739810 -1.882480 1.728712 8.148883 -8.714234 -10.798989 1.640467 1.919870 -0.972176 -1.688597 -18.026167 -5.765118 -3.976200 0.000000 -27.590900
